<mxfile host="app.diagrams.net" agent="Mozilla/5.0 (Windows NT 10.0; Win64; x64) AppleWebKit/537.36 (KHTML, like Gecko) Chrome/131.0.0.0 Safari/537.36" version="25.0.3">
  <diagram name="Page-1" id="NSJXgjtKGkGuNpLyBI_f">
    <mxGraphModel dx="1064" dy="538" grid="1" gridSize="10" guides="1" tooltips="1" connect="1" arrows="1" fold="1" page="1" pageScale="1" pageWidth="827" pageHeight="1169" math="0" shadow="0">
      <root>
        <mxCell id="0" />
        <mxCell id="1" parent="0" />
        <mxCell id="LSQM8RCuRyQCz4PE_PzF-1" value="drivers/acpi/property.c" style="text;html=1;align=center;verticalAlign=middle;resizable=0;points=[];autosize=1;strokeColor=none;fillColor=none;" vertex="1" parent="1">
          <mxGeometry x="110" y="350" width="140" height="30" as="geometry" />
        </mxCell>
        <mxCell id="LSQM8RCuRyQCz4PE_PzF-8" style="edgeStyle=orthogonalEdgeStyle;rounded=0;orthogonalLoop=1;jettySize=auto;html=1;exitX=0.5;exitY=1;exitDx=0;exitDy=0;entryX=0.5;entryY=0;entryDx=0;entryDy=0;" edge="1" parent="1" source="LSQM8RCuRyQCz4PE_PzF-2" target="LSQM8RCuRyQCz4PE_PzF-7">
          <mxGeometry relative="1" as="geometry" />
        </mxCell>
        <mxCell id="LSQM8RCuRyQCz4PE_PzF-2" value="&lt;span style=&quot;forced-color-adjust: none; font-family: Consolas, &amp;quot;Courier New&amp;quot;, monospace; font-size: 14px; font-style: normal; font-variant-ligatures: normal; font-variant-caps: normal; font-weight: 400; letter-spacing: normal; orphans: 2; text-align: left; text-indent: 0px; text-transform: none; widows: 2; word-spacing: 0px; -webkit-text-stroke-width: 0px; white-space: pre; background-color: rgb(245, 245, 245); text-decoration-thickness: initial; text-decoration-style: initial; text-decoration-color: initial; color: rgb(166, 38, 164);&quot;&gt;struct&lt;/span&gt;&lt;span style=&quot;forced-color-adjust: none; color: rgb(56, 58, 66); font-family: Consolas, &amp;quot;Courier New&amp;quot;, monospace; font-size: 14px; font-style: normal; font-variant-ligatures: normal; font-variant-caps: normal; font-weight: 400; letter-spacing: normal; orphans: 2; text-align: left; text-indent: 0px; text-transform: none; widows: 2; word-spacing: 0px; -webkit-text-stroke-width: 0px; white-space: pre; background-color: rgb(245, 245, 245); text-decoration-thickness: initial; text-decoration-style: initial; text-decoration-color: initial;&quot;&gt; &lt;/span&gt;&lt;span style=&quot;forced-color-adjust: none; font-family: Consolas, &amp;quot;Courier New&amp;quot;, monospace; font-size: 14px; font-style: normal; font-variant-ligatures: normal; font-variant-caps: normal; font-weight: 400; letter-spacing: normal; orphans: 2; text-align: left; text-indent: 0px; text-transform: none; widows: 2; word-spacing: 0px; -webkit-text-stroke-width: 0px; white-space: pre; background-color: rgb(245, 245, 245); text-decoration-thickness: initial; text-decoration-style: initial; text-decoration-color: initial; color: rgb(193, 132, 1);&quot;&gt;fwnode_operations&lt;/span&gt;&lt;span style=&quot;forced-color-adjust: none; color: rgb(56, 58, 66); font-family: Consolas, &amp;quot;Courier New&amp;quot;, monospace; font-size: 14px; font-style: normal; font-variant-ligatures: normal; font-variant-caps: normal; font-weight: 400; letter-spacing: normal; orphans: 2; text-align: left; text-indent: 0px; text-transform: none; widows: 2; word-spacing: 0px; -webkit-text-stroke-width: 0px; white-space: pre; background-color: rgb(245, 245, 245); text-decoration-thickness: initial; text-decoration-style: initial; text-decoration-color: initial;&quot;&gt; &lt;/span&gt;&lt;span style=&quot;forced-color-adjust: none; font-family: Consolas, &amp;quot;Courier New&amp;quot;, monospace; font-size: 14px; font-style: normal; font-variant-ligatures: normal; font-variant-caps: normal; font-weight: 400; letter-spacing: normal; orphans: 2; text-align: left; text-indent: 0px; text-transform: none; widows: 2; word-spacing: 0px; -webkit-text-stroke-width: 0px; white-space: pre; background-color: rgb(245, 245, 245); text-decoration-thickness: initial; text-decoration-style: initial; text-decoration-color: initial; color: rgb(228, 86, 73);&quot;&gt;ops&lt;/span&gt;" style="text;whiteSpace=wrap;html=1;" vertex="1" parent="1">
          <mxGeometry x="65" y="380" width="230" height="30" as="geometry" />
        </mxCell>
        <mxCell id="LSQM8RCuRyQCz4PE_PzF-3" value="&lt;span style=&quot;color: rgb(0, 0, 0); font-family: Helvetica; font-size: 12px; font-style: normal; font-variant-ligatures: normal; font-variant-caps: normal; font-weight: 400; letter-spacing: normal; orphans: 2; text-align: center; text-indent: 0px; text-transform: none; widows: 2; word-spacing: 0px; -webkit-text-stroke-width: 0px; white-space: nowrap; background-color: rgb(251, 251, 251); text-decoration-thickness: initial; text-decoration-style: initial; text-decoration-color: initial; display: inline !important; float: none;&quot;&gt;drivers/base/swnode.c&lt;/span&gt;" style="text;whiteSpace=wrap;html=1;" vertex="1" parent="1">
          <mxGeometry x="430" y="350" width="130" height="30" as="geometry" />
        </mxCell>
        <mxCell id="LSQM8RCuRyQCz4PE_PzF-9" style="edgeStyle=orthogonalEdgeStyle;rounded=0;orthogonalLoop=1;jettySize=auto;html=1;entryX=0.5;entryY=0;entryDx=0;entryDy=0;" edge="1" parent="1" source="LSQM8RCuRyQCz4PE_PzF-4" target="LSQM8RCuRyQCz4PE_PzF-7">
          <mxGeometry relative="1" as="geometry" />
        </mxCell>
        <mxCell id="LSQM8RCuRyQCz4PE_PzF-4" value="&lt;div style=&quot;color: #383a42;background-color: #f5f5f5;font-family: Consolas, &#39;Courier New&#39;, monospace;font-weight: normal;font-size: 14px;line-height: 19px;white-space: pre;&quot;&gt;&lt;div&gt;&lt;span style=&quot;color: #a626a4;&quot;&gt;struct&lt;/span&gt;&lt;span style=&quot;color: #383a42;&quot;&gt; &lt;/span&gt;&lt;span style=&quot;color: #c18401;&quot;&gt;fwnode_operations&lt;/span&gt;&lt;span style=&quot;color: #383a42;&quot;&gt; &lt;/span&gt;&lt;span style=&quot;color: #e45649;&quot;&gt;software_node_ops&lt;/span&gt;&lt;/div&gt;&lt;/div&gt;" style="text;whiteSpace=wrap;html=1;" vertex="1" parent="1">
          <mxGeometry x="330" y="380" width="330" height="30" as="geometry" />
        </mxCell>
        <mxCell id="LSQM8RCuRyQCz4PE_PzF-10" style="edgeStyle=orthogonalEdgeStyle;rounded=0;orthogonalLoop=1;jettySize=auto;html=1;exitX=0.5;exitY=1;exitDx=0;exitDy=0;entryX=0.5;entryY=0;entryDx=0;entryDy=0;" edge="1" parent="1" source="LSQM8RCuRyQCz4PE_PzF-5" target="LSQM8RCuRyQCz4PE_PzF-7">
          <mxGeometry relative="1" as="geometry">
            <Array as="points">
              <mxPoint x="865" y="450" />
              <mxPoint x="495" y="450" />
            </Array>
          </mxGeometry>
        </mxCell>
        <mxCell id="LSQM8RCuRyQCz4PE_PzF-5" value="&lt;div style=&quot;color: #383a42;background-color: #f5f5f5;font-family: Consolas, &#39;Courier New&#39;, monospace;font-weight: normal;font-size: 14px;line-height: 19px;white-space: pre;&quot;&gt;&lt;div&gt;&lt;span style=&quot;color: #a626a4;&quot;&gt;struct&lt;/span&gt;&lt;span style=&quot;color: #383a42;&quot;&gt; &lt;/span&gt;&lt;span style=&quot;color: #c18401;&quot;&gt;fwnode_operations&lt;/span&gt;&lt;span style=&quot;color: #383a42;&quot;&gt; &lt;/span&gt;&lt;span style=&quot;color: #e45649;&quot;&gt;of_fwnode_ops&lt;/span&gt;&lt;/div&gt;&lt;/div&gt;" style="text;whiteSpace=wrap;html=1;" vertex="1" parent="1">
          <mxGeometry x="700" y="380" width="330" height="40" as="geometry" />
        </mxCell>
        <mxCell id="LSQM8RCuRyQCz4PE_PzF-6" value="&lt;span style=&quot;color: rgb(0, 0, 0); font-family: Helvetica; font-size: 12px; font-style: normal; font-variant-ligatures: normal; font-variant-caps: normal; font-weight: 400; letter-spacing: normal; orphans: 2; text-align: center; text-indent: 0px; text-transform: none; widows: 2; word-spacing: 0px; -webkit-text-stroke-width: 0px; white-space: nowrap; background-color: rgb(251, 251, 251); text-decoration-thickness: initial; text-decoration-style: initial; text-decoration-color: initial; display: inline !important; float: none;&quot;&gt;drivers/of/property.c&lt;/span&gt;" style="text;whiteSpace=wrap;html=1;" vertex="1" parent="1">
          <mxGeometry x="790" y="350" width="130" height="30" as="geometry" />
        </mxCell>
        <mxCell id="LSQM8RCuRyQCz4PE_PzF-7" value="&lt;div style=&quot;color: #383a42;background-color: #f5f5f5;font-family: Consolas, &#39;Courier New&#39;, monospace;font-weight: normal;font-size: 14px;line-height: 19px;white-space: pre;&quot;&gt;&lt;div style=&quot;line-height: 19px;&quot;&gt;&lt;div&gt;&lt;span style=&quot;color: #4078f2;&quot;&gt;fwnode_init&lt;/span&gt;(&lt;span style=&quot;color: #a626a4;&quot;&gt;struct&lt;/span&gt; &lt;span style=&quot;color: #c18401;&quot;&gt;fwnode_handle&lt;/span&gt; &lt;span style=&quot;color: #a626a4;&quot;&gt;*&lt;/span&gt;&lt;span style=&quot;color: #00afaf;&quot;&gt;fwnode&lt;/span&gt;, &lt;span style=&quot;color: rgb(166, 38, 164);&quot;&gt;const&lt;/span&gt; &lt;span style=&quot;color: rgb(166, 38, 164);&quot;&gt;struct&lt;/span&gt; &lt;span style=&quot;color: rgb(193, 132, 1);&quot;&gt;fwnode_operations&lt;/span&gt; &lt;span style=&quot;color: rgb(166, 38, 164);&quot;&gt;*&lt;/span&gt;&lt;span style=&quot;color: rgb(0, 175, 175);&quot;&gt;ops&lt;/span&gt;)&lt;/div&gt;&lt;/div&gt;&lt;/div&gt;" style="text;whiteSpace=wrap;html=1;" vertex="1" parent="1">
          <mxGeometry x="190" y="490" width="610" height="30" as="geometry" />
        </mxCell>
      </root>
    </mxGraphModel>
  </diagram>
</mxfile>
